<svg xmlns="http://www.w3.org/2000/svg" xmlns:xlink="http://www.w3.org/1999/xlink" width="284" height="68" viewBox="0 0 284 68">
  <defs>
    <clipPath id="clip-UPAg-watermark-bg">
      <rect width="284" height="68"/>
    </clipPath>
  </defs>
  <g id="UPAg-watermark-bg" clip-path="url(#clip-UPAg-watermark-bg)">
    <rect width="284" height="68" fill="#fff"/>
    <g id="Group_34523" data-name="Group 34523" transform="translate(1 2)">
      <g id="Group_25835" data-name="Group 25835" transform="translate(4 2)">
        <g id="Group_25833" data-name="Group 25833" transform="translate(0)">
          <path id="Path_58401" data-name="Path 58401" d="M1386.54,423.34a17.785,17.785,0,0,1-10.94,5.157,17.886,17.886,0,0,1,16.1-16.1A17.784,17.784,0,0,1,1386.54,423.34Z" transform="translate(-1358.446 -395.567)" fill="#edb636"/>
          <path id="Path_58402" data-name="Path 58402" d="M1317.194,210.666a20.924,20.924,0,0,1-4.8,13.366,21.019,21.019,0,0,1,0-26.732A20.94,20.94,0,0,1,1317.194,210.666Z" transform="translate(-1295.767 -197.3)" fill="#edb636"/>
          <path id="Path_58403" data-name="Path 58403" d="M1161.557,423.34A17.786,17.786,0,0,0,1172.5,428.5a17.886,17.886,0,0,0-16.1-16.1A17.784,17.784,0,0,0,1161.557,423.34Z" transform="translate(-1156.4 -395.567)" fill="#edb636"/>
        </g>
        <g id="Group_25834" data-name="Group 25834" transform="translate(2.629 31.208)">
          <path id="Path_58404" data-name="Path 58404" d="M1203.249,625.774h0A13.247,13.247,0,0,1,1190,612.534V596.1h0a13.247,13.247,0,0,1,13.249,13.241Z" transform="translate(-1190 -596.1)" fill="#1a6734"/>
          <path id="Path_58405" data-name="Path 58405" d="M1378.5,625.774h0a13.247,13.247,0,0,0,13.249-13.241V596.1h0a13.247,13.247,0,0,0-13.249,13.241Z" transform="translate(-1363.748 -596.1)" fill="#1a6734"/>
        </g>
      </g>
      <g id="Group_34522" data-name="Group 34522" transform="translate(7.899 1.043)">
        <path id="Path_66734" data-name="Path 66734" d="M1.208.118V-9.1H3.754q4.873,0,4.873,4.494a4.528,4.528,0,0,1-1.353,3.43A5.02,5.02,0,0,1,3.651.118Zm1.08-8.242V-.859H3.664A3.9,3.9,0,0,0,6.486-1.83,3.639,3.639,0,0,0,7.5-4.581q0-3.542-3.767-3.542ZM15.326.118H10.44V-9.1h4.68v.977h-3.6v3.067h3.33v.971H11.52V-.859h3.806ZM18.18-3.366V.118H17.1V-9.1h2.533a3.343,3.343,0,0,1,2.292.72,2.571,2.571,0,0,1,.813,2.031,2.794,2.794,0,0,1-.9,2.147,3.451,3.451,0,0,1-2.44.836Zm0-4.757v3.78h1.131a2.53,2.53,0,0,0,1.707-.511A1.809,1.809,0,0,0,21.607-6.3q0-1.826-2.16-1.826ZM30.71.118h-1.2l-.977-2.584H24.628L23.709.118h-1.2L26.043-9.1h1.119ZM28.184-3.437,26.737-7.365a3.762,3.762,0,0,1-.141-.617H26.57a3.443,3.443,0,0,1-.148.617L24.988-3.437ZM38.676.118H37.39L35.847-2.466a5.629,5.629,0,0,0-.411-.614,2.345,2.345,0,0,0-.408-.415,1.414,1.414,0,0,0-.45-.235,1.851,1.851,0,0,0-.543-.074h-.887V.118h-1.08V-9.1h2.752a3.921,3.921,0,0,1,1.115.151,2.5,2.5,0,0,1,.887.46,2.136,2.136,0,0,1,.588.768,2.548,2.548,0,0,1,.212,1.077,2.593,2.593,0,0,1-.145.884,2.309,2.309,0,0,1-.411.717,2.494,2.494,0,0,1-.643.537,3.282,3.282,0,0,1-.845.344v.026a1.944,1.944,0,0,1,.4.235,2.212,2.212,0,0,1,.325.312,4.13,4.13,0,0,1,.305.408q.151.228.338.53ZM33.147-8.123V-4.78h1.466a2.223,2.223,0,0,0,.749-.122,1.734,1.734,0,0,0,.595-.35,1.589,1.589,0,0,0,.392-.559,1.873,1.873,0,0,0,.141-.743,1.445,1.445,0,0,0-.479-1.154,2.058,2.058,0,0,0-1.385-.415Zm11.656,0H42.141V.118h-1.08V-8.123H38.406V-9.1h6.4ZM55.648.118H54.574V-6.066q0-.733.09-1.794h-.026a5.734,5.734,0,0,1-.276.894L51.212.118h-.527L47.541-6.915a5.509,5.509,0,0,1-.276-.945h-.026q.051.553.051,1.806V.118H46.249V-9.1h1.427L50.5-2.672a8.232,8.232,0,0,1,.424,1.106h.039q.276-.759.444-1.131L54.3-9.1h1.35Zm7.31,0H58.072V-9.1h4.68v.977h-3.6v3.067h3.33v.971h-3.33V-.859h3.806Zm9.206,0H70.84L66.1-7.23a3.07,3.07,0,0,1-.3-.579h-.039a9.491,9.491,0,0,1,.051,1.266V.118h-1.08V-9.1h1.4L70.75-1.868q.289.45.373.617h.026a9.753,9.753,0,0,1-.064-1.356V-9.1h1.08Zm7.869-8.242H77.371V.118h-1.08V-8.123H73.636V-9.1h6.4ZM88.8.273A4.047,4.047,0,0,1,85.661-1.02a4.793,4.793,0,0,1-1.18-3.362,5.078,5.078,0,0,1,1.2-3.549,4.2,4.2,0,0,1,3.272-1.324,3.956,3.956,0,0,1,3.076,1.286A4.81,4.81,0,0,1,93.2-4.607,5.1,5.1,0,0,1,92-1.039,4.121,4.121,0,0,1,88.8.273Zm.077-8.55A2.972,2.972,0,0,0,86.52-7.23a4.057,4.057,0,0,0-.906,2.752A4.085,4.085,0,0,0,86.5-1.736,2.883,2.883,0,0,0,88.8-.7a3.027,3.027,0,0,0,2.392-.99,4.046,4.046,0,0,0,.874-2.771,4.228,4.228,0,0,0-.849-2.822A2.91,2.91,0,0,0,88.879-8.278Zm10.813.154h-3.6v3.189h3.33v.971h-3.33V.118h-1.08V-9.1h4.68ZM9.16,17.336H6.9l-.656-2.051H2.963l-.649,2.051H.063L3.419,8.117H5.882ZM5.766,13.69l-.99-3.1a4.038,4.038,0,0,1-.154-.829H4.57a3.516,3.516,0,0,1-.161.8l-1,3.124Zm11.984,3.028a6.635,6.635,0,0,1-3.356.778,4.853,4.853,0,0,1-3.507-1.231A4.479,4.479,0,0,1,9.6,12.874a4.734,4.734,0,0,1,1.4-3.542,5.106,5.106,0,0,1,3.729-1.369,7.574,7.574,0,0,1,2.584.405v1.948a5.137,5.137,0,0,0-2.61-.617,2.8,2.8,0,0,0-2.105.839,3.082,3.082,0,0,0-.813,2.24,3.091,3.091,0,0,0,.73,2.2,2.572,2.572,0,0,0,1.97.778,2.743,2.743,0,0,0,1.183-.212v-1.8H13.828V12.083h3.922Zm9.528.617H24.892l-1.434-2.372q-.161-.27-.309-.482a2.679,2.679,0,0,0-.3-.363,1.189,1.189,0,0,0-.315-.231.8.8,0,0,0-.357-.08H21.62v3.529H19.543V8.117h3.292q3.356,0,3.356,2.507a2.6,2.6,0,0,1-.148.89,2.473,2.473,0,0,1-.418.736,2.649,2.649,0,0,1-.653.566,3.365,3.365,0,0,1-.852.373v.026a1.321,1.321,0,0,1,.4.209,2.854,2.854,0,0,1,.373.338,4.709,4.709,0,0,1,.344.415q.164.222.3.434ZM21.62,9.672v2.565h.9a1.492,1.492,0,0,0,1.074-.386A1.287,1.287,0,0,0,24,10.881q0-1.209-1.447-1.209Zm8.6,7.663H28.139V8.117h2.077Zm8.7-.328a6.08,6.08,0,0,1-2.636.489,4.443,4.443,0,0,1-3.337-1.247,4.559,4.559,0,0,1-1.215-3.324A4.871,4.871,0,0,1,33.1,9.338a4.779,4.779,0,0,1,3.546-1.376A6.631,6.631,0,0,1,38.92,8.3v2a4.033,4.033,0,0,0-2.109-.553,2.8,2.8,0,0,0-2.1.816,3.03,3.03,0,0,0-.8,2.212,2.971,2.971,0,0,0,.752,2.131A2.657,2.657,0,0,0,36.7,15.7a4.32,4.32,0,0,0,2.224-.591Zm9.123-3.664q0,4.153-3.87,4.153-3.754,0-3.754-4.057V8.117H42.5v5.349q0,2.237,1.749,2.237,1.717,0,1.717-2.16V8.117h2.077Zm7.5,3.992h-5.49V8.117h2.077v7.535h3.414Zm6.847-7.528H59.756v7.528H57.673V9.807H55.057V8.117h7.329Zm8.756,3.536q0,4.153-3.87,4.153-3.754,0-3.755-4.057V8.117H65.6v5.349q0,2.237,1.749,2.237,1.717,0,1.717-2.16V8.117h2.077Zm9.74,3.992H78.5l-1.434-2.372q-.161-.27-.309-.482a2.678,2.678,0,0,0-.3-.363,1.189,1.189,0,0,0-.315-.231.8.8,0,0,0-.357-.08h-.559v3.529H73.148V8.117h3.292q3.356,0,3.356,2.507a2.6,2.6,0,0,1-.148.89,2.473,2.473,0,0,1-.418.736,2.649,2.649,0,0,1-.653.566,3.365,3.365,0,0,1-.852.373v.026a1.321,1.321,0,0,1,.4.209,2.853,2.853,0,0,1,.373.338,4.708,4.708,0,0,1,.344.415q.164.222.3.434ZM75.224,9.672v2.565h.9a1.492,1.492,0,0,0,1.074-.386,1.287,1.287,0,0,0,.411-.971q0-1.209-1.447-1.209Zm12.048,7.663H81.743V8.117H87.06V9.807H83.82v2.051h3.015v1.684H83.82v2.109h3.452Zm13.565.148a2.274,2.274,0,0,1-.646-.09,2.759,2.759,0,0,1-.579-.244,3.266,3.266,0,0,1-.518-.363,5.358,5.358,0,0,1-.463-.447,5.439,5.439,0,0,1-.572.4,4.677,4.677,0,0,1-.755.37,5.869,5.869,0,0,1-.929.27,5.309,5.309,0,0,1-1.086.106A5.123,5.123,0,0,1,93.9,17.3a3.207,3.207,0,0,1-1.1-.537,2.5,2.5,0,0,1-.723-.884,2.725,2.725,0,0,1-.26-1.221,2.312,2.312,0,0,1,.2-.974,2.621,2.621,0,0,1,.511-.749,3.346,3.346,0,0,1,.714-.553,5.362,5.362,0,0,1,.81-.386,4.256,4.256,0,0,1-.4-.357,2.9,2.9,0,0,1-.363-.444,2.344,2.344,0,0,1-.26-.524,1.786,1.786,0,0,1-.1-.6A1.853,1.853,0,0,1,93.7,8.515a2.7,2.7,0,0,1,.884-.411,4.26,4.26,0,0,1,1.132-.141A3.751,3.751,0,0,1,96.8,8.11a2.7,2.7,0,0,1,.845.411,1.855,1.855,0,0,1,.546.633,1.731,1.731,0,0,1,.193.813,1.9,1.9,0,0,1-.428,1.238,3.042,3.042,0,0,1-1.205.852,4.913,4.913,0,0,1,.591.321,4.859,4.859,0,0,1,.553.411,5.278,5.278,0,0,1,.527.524,6.17,6.17,0,0,1,.508.672,4.243,4.243,0,0,0,.755-1.411,5.318,5.318,0,0,0,.228-1.559,3.678,3.678,0,0,0-.029-.469,2.212,2.212,0,0,0-.093-.418h1.729a2.484,2.484,0,0,1,.1.4,2.817,2.817,0,0,1,.032.456,5.57,5.57,0,0,1-.132,1.215,6.08,6.08,0,0,1-.37,1.131,5.985,5.985,0,0,1-.575,1.022,7.331,7.331,0,0,1-.743.9,2.59,2.59,0,0,0,.649.5,1.354,1.354,0,0,0,.63.177,3.061,3.061,0,0,0,.63-.067,2.223,2.223,0,0,0,.559-.19v1.53a3.9,3.9,0,0,1-.7.209A4,4,0,0,1,100.837,17.483Zm-5.445-1.536a3.3,3.3,0,0,0,.714-.074,3.792,3.792,0,0,0,.63-.2,3.583,3.583,0,0,0,.55-.283,4.727,4.727,0,0,0,.466-.334,6.622,6.622,0,0,0-.649-.871,5.575,5.575,0,0,0-.636-.611,4.461,4.461,0,0,0-.627-.428q-.312-.174-.627-.315a4.645,4.645,0,0,0-.5.286,2.134,2.134,0,0,0-.428.366,1.7,1.7,0,0,0-.3.476,1.569,1.569,0,0,0-.113.614,1.385,1.385,0,0,0,.109.559,1.223,1.223,0,0,0,.312.431,1.448,1.448,0,0,0,.482.28A1.838,1.838,0,0,0,95.392,15.947Zm1.189-5.837a.765.765,0,0,0-.071-.334.71.71,0,0,0-.193-.248.919.919,0,0,0-.276-.154.975.975,0,0,0-.328-.055,1.131,1.131,0,0,0-.389.064,1.03,1.03,0,0,0-.309.174.746.746,0,0,0-.2.26.756.756,0,0,0-.071.325,1.084,1.084,0,0,0,.225.662,1.754,1.754,0,0,0,.559.489,2.972,2.972,0,0,0,.4-.18,1.493,1.493,0,0,0,.334-.244,1.109,1.109,0,0,0,.231-.328A1.01,1.01,0,0,0,96.581,10.11Zm15.95-.3h-3.253V12.07h2.989v1.684h-2.989v3.581H107.2V8.117h5.33Zm8.911,7.528h-2.263l-.656-2.051h-3.279l-.649,2.051h-2.25L115.7,8.117h2.462Zm-3.394-3.645-.99-3.1a4.038,4.038,0,0,1-.154-.829h-.051a3.517,3.517,0,0,1-.161.8l-1,3.124Zm12.279,3.645h-2.385l-1.434-2.372q-.161-.27-.309-.482a2.679,2.679,0,0,0-.3-.363,1.189,1.189,0,0,0-.315-.231.8.8,0,0,0-.357-.08h-.559v3.529h-2.077V8.117h3.292q3.356,0,3.356,2.507a2.6,2.6,0,0,1-.148.89,2.474,2.474,0,0,1-.418.736,2.649,2.649,0,0,1-.653.566,3.365,3.365,0,0,1-.852.373v.026a1.322,1.322,0,0,1,.4.209,2.854,2.854,0,0,1,.373.338,4.708,4.708,0,0,1,.344.415q.164.222.3.434Zm-5.657-7.663v2.565h.9a1.492,1.492,0,0,0,1.074-.386,1.287,1.287,0,0,0,.411-.971q0-1.209-1.447-1.209Zm17.024,7.663h-2.051V11.82q0-.894.077-1.974h-.051a9.708,9.708,0,0,1-.289,1.221l-2.16,6.268h-1.7l-2.2-6.2a12.07,12.07,0,0,1-.289-1.286h-.058q.084,1.363.084,2.392v5.1h-1.871V8.117h3.041l1.884,5.464a7.692,7.692,0,0,1,.328,1.318h.039a13.273,13.273,0,0,1,.366-1.331l1.884-5.452h2.964Zm7.625,0h-5.529V8.117h5.317V9.807h-3.24v2.051h3.015v1.684h-3.015v2.109h3.452Zm9.213,0h-2.385l-1.434-2.372q-.161-.27-.309-.482a2.68,2.68,0,0,0-.3-.363,1.189,1.189,0,0,0-.315-.231.8.8,0,0,0-.357-.08h-.559v3.529H150.8V8.117h3.292q3.356,0,3.356,2.507a2.6,2.6,0,0,1-.148.89,2.473,2.473,0,0,1-.418.736,2.65,2.65,0,0,1-.653.566,3.366,3.366,0,0,1-.852.373v.026a1.321,1.321,0,0,1,.4.209,2.854,2.854,0,0,1,.373.338,4.71,4.71,0,0,1,.344.415q.164.222.3.434Zm-5.657-7.663v2.565h.9a1.492,1.492,0,0,0,1.074-.386,1.287,1.287,0,0,0,.411-.971q0-1.209-1.447-1.209Zm6.095,7.31V14.925a3.953,3.953,0,0,0,1.215.7,3.906,3.906,0,0,0,1.324.235,2.937,2.937,0,0,0,.685-.071,1.6,1.6,0,0,0,.489-.2.855.855,0,0,0,.293-.3.738.738,0,0,0,.1-.37.8.8,0,0,0-.154-.482,1.66,1.66,0,0,0-.421-.392,4.4,4.4,0,0,0-.633-.347q-.366-.167-.791-.341a4.036,4.036,0,0,1-1.61-1.1,2.4,2.4,0,0,1-.53-1.569,2.5,2.5,0,0,1,.289-1.238,2.457,2.457,0,0,1,.788-.852,3.531,3.531,0,0,1,1.154-.492,5.929,5.929,0,0,1,1.389-.158,8.352,8.352,0,0,1,1.276.087,5.018,5.018,0,0,1,1.025.267v1.922a3.1,3.1,0,0,0-.5-.283,4,4,0,0,0-.563-.2,4.291,4.291,0,0,0-.575-.119,4.072,4.072,0,0,0-.543-.039,2.833,2.833,0,0,0-.643.068,1.649,1.649,0,0,0-.489.19.944.944,0,0,0-.309.293.693.693,0,0,0-.109.383.731.731,0,0,0,.122.415,1.4,1.4,0,0,0,.347.347,3.684,3.684,0,0,0,.546.321q.321.158.726.325a8.093,8.093,0,0,1,.993.492,3.531,3.531,0,0,1,.755.588,2.292,2.292,0,0,1,.482.749,2.99,2.99,0,0,1-.125,2.276,2.375,2.375,0,0,1-.794.849,3.443,3.443,0,0,1-1.167.466,6.744,6.744,0,0,1-1.4.141,7.811,7.811,0,0,1-1.443-.129A4.357,4.357,0,0,1,158.967,16.982Zm23.5-8.865-2.437,9.219h-2.3l-1.53-5.914a4.932,4.932,0,0,1-.148-1.035h-.026a6.287,6.287,0,0,1-.167,1.035l-1.569,5.914h-2.4l-2.424-9.219h2.269l1.3,6.139a7.331,7.331,0,0,1,.122,1.054h.039a5.1,5.1,0,0,1,.186-1.08l1.672-6.114h2.224l1.511,6.191a7.58,7.58,0,0,1,.148.99h.026a6.634,6.634,0,0,1,.135-1.029l1.273-6.152Zm6.7,9.219h-5.529V8.117h5.317V9.807h-3.24v2.051h3.015v1.684h-3.015v2.109h3.452Zm6.969,0h-5.49V8.117h2.077v7.535h3.414Zm6.57-7.528H199.45V12.07h2.989v1.684H199.45v3.581h-2.077V8.117h5.33Zm8.911,7.528h-2.263l-.656-2.051h-3.279l-.649,2.051h-2.25l3.356-9.219h2.462Zm-3.394-3.645-.99-3.1a4.037,4.037,0,0,1-.154-.829h-.051a3.516,3.516,0,0,1-.161.8l-1,3.124ZM220.5,17.336h-2.385l-1.434-2.372q-.161-.27-.309-.482a2.68,2.68,0,0,0-.3-.363,1.189,1.189,0,0,0-.315-.231.8.8,0,0,0-.357-.08h-.559v3.529h-2.077V8.117h3.292q3.356,0,3.356,2.507a2.6,2.6,0,0,1-.148.89,2.474,2.474,0,0,1-.418.736,2.649,2.649,0,0,1-.653.566,3.365,3.365,0,0,1-.852.373v.026a1.321,1.321,0,0,1,.4.209,2.853,2.853,0,0,1,.373.338,4.707,4.707,0,0,1,.344.415q.164.222.3.434Zm-5.657-7.663v2.565h.9a1.492,1.492,0,0,0,1.074-.386,1.287,1.287,0,0,0,.411-.971q0-1.209-1.447-1.209Zm12.048,7.663H221.36V8.117h5.317V9.807h-3.24v2.051h3.015v1.684h-3.015v2.109h3.452Z" transform="translate(42.359 39.534)" fill="#202020"/>
        <path id="Path_65749" data-name="Path 65749" d="M16.078-15.6H10.47v.837c1.578.1,2.093.419,2.212,1.22a22.8,22.8,0,0,1,.191,3.408v2.1c0,3.767-1.148,5.931-3.886,5.931-2.475,0-3.779-1.841-3.779-5.369v-5.07c0-1.961.2-2.1,1.889-2.224V-15.6H.749v.837c1.722.12,1.913.263,1.913,2.224v5.488c0,2.643.61,4.3,1.889,5.309A5.847,5.847,0,0,0,8.318-.6a5.507,5.507,0,0,0,4.042-1.59C13.639-3.545,14.022-5.482,14.022-8v-2.128a28.153,28.153,0,0,1,.155-3.384c.12-.849.634-1.172,1.9-1.244Zm1.327,0v.837c1.566.12,1.794.239,1.794,2.176v8.693c0,1.841-.227,2.009-1.937,2.152v.813h6.589v-.813C21.866-1.883,21.662-2,21.662-3.892V-7.12l1.566.419a6.992,6.992,0,0,0,.957-.048c2.308-.275,4.508-1.7,4.508-4.687a3.806,3.806,0,0,0-1.566-3.252,6.5,6.5,0,0,0-3.874-.909Zm4.257,1.985a1.085,1.085,0,0,1,.251-.861,1.482,1.482,0,0,1,.981-.215c1.519,0,3.037.885,3.037,3.36,0,2.858-1.77,3.551-2.846,3.551a4.108,4.108,0,0,1-1.423-.251ZM42.564-.926v-.837c-1.471-.167-1.77-.383-2.451-2.32-1.423-3.8-2.87-8.035-4.233-11.85l-1.052.263L30.32-4.035c-.741,1.913-1.028,2.081-2.5,2.272v.837h5.022v-.837c-1.614-.191-1.722-.43-1.351-1.638.251-.909.538-1.71.813-2.427h4.448c.371,1,.717,2.033.981,2.75.3.933.155,1.124-1.172,1.315v.837Zm-6.194-6.1H32.663c.622-1.71,1.232-3.48,1.865-5.237H34.6Zm17.135-3.9c-.885.108-2.009.227-3.085.3a4.636,4.636,0,0,0-2.344-.61H48.04c-1.877,0-4.209,1.172-4.209,3.719a3.122,3.122,0,0,0,2.057,2.989A5.331,5.331,0,0,1,43.76-3.055a1.965,1.965,0,0,0,.323,1.076A2.923,2.923,0,0,0,45.7-.759a16.229,16.229,0,0,0-1.722,1.3,1.635,1.635,0,0,0-.634,1.244c0,1.3,1.351,2.774,4.089,2.774,2.989,0,5.859-2.057,5.859-4.532,0-2.26-1.937-2.714-3.36-2.714-.729,0-1.423.048-2.224.048-1,0-1.4-.466-1.4-.861a1.13,1.13,0,0,1,.49-.789,7.276,7.276,0,0,0,1.1.108c2.081,0,4.113-1.16,4.113-3.551a2.693,2.693,0,0,0-.586-1.794l1.279.1a3.41,3.41,0,0,0,.945-1.315Zm-5.584.538c1.124,0,1.794,1.256,1.794,2.8,0,1.638-.67,2.547-1.59,2.547-1.112,0-1.818-1.22-1.818-2.8,0-1.638.789-2.547,1.59-2.547Zm.3,9.733a6.727,6.727,0,0,1,2.009.215,1.514,1.514,0,0,1,1.124,1.471c0,1.244-1.076,2.248-2.918,2.248-1.686,0-2.882-.981-2.882-2.1A1.847,1.847,0,0,1,46.283-.2c.347-.335.837-.454,1.913-.454Z" transform="translate(41.674 21.889)" fill="#141414"/>
      </g>
    </g>
  </g>
</svg>
